<svg xmlns="http://www.w3.org/2000/svg" viewBox="0 0 420 180" role="img" aria-label="auto">
  <defs><linearGradient id="body" x1="0" y1="0" x2="1" y2="1"><stop offset="0" stop-color="#26364a"/><stop offset="0.55" stop-color="#101b2a"/><stop offset="1" stop-color="#06101a"/></linearGradient><linearGradient id="glass" x1="0" y1="0" x2="1" y2="1"><stop offset="0" stop-color="#78ffe7" stop-opacity="0.55"/><stop offset="1" stop-color="#19d6ff" stop-opacity="0.16"/></linearGradient><filter id="shadow" x="-20%" y="-30%" width="140%" height="180%"><feDropShadow dx="0" dy="14" stdDeviation="12" flood-color="#000" flood-opacity="0.55"/></filter></defs>
  <ellipse cx="210" cy="146" rx="160" ry="18" fill="#2af5d0" opacity="0.14"/><g filter="url(#shadow)"><path d="M42 112 C51 84 72 74 116 70 L158 36 C177 20 207 16 239 19 C284 23 319 47 345 76 C370 80 389 92 397 114 L388 130 L58 130 Z" fill="url(#body)" stroke="#5fffea" stroke-opacity="0.25" stroke-width="2"/><path d="M143 70 L171 43 C184 31 205 29 231 31 C263 34 290 50 311 73 Z" fill="url(#glass)" stroke="#9dfcf1" stroke-opacity="0.28" stroke-width="2"/><path d="M175 43 L178 72" stroke="#02101a" stroke-opacity="0.65" stroke-width="4"/><path d="M250 35 L243 73" stroke="#02101a" stroke-opacity="0.65" stroke-width="4"/><path d="M72 113 C132 104 286 103 374 113" fill="none" stroke="#7fffea" stroke-opacity="0.18" stroke-width="3"/><circle cx="127" cy="130" r="27" fill="#050b12" stroke="#6d7f94" stroke-width="4"/><circle cx="127" cy="130" r="12" fill="#26364a" stroke="#2af5d0" stroke-opacity="0.42" stroke-width="3"/><circle cx="314" cy="130" r="27" fill="#050b12" stroke="#6d7f94" stroke-width="4"/><circle cx="314" cy="130" r="12" fill="#26364a" stroke="#2af5d0" stroke-opacity="0.42" stroke-width="3"/><path d="M61 118 H91" stroke="#2af5d0" stroke-opacity="0.7" stroke-width="5" stroke-linecap="round"/><path d="M357 116 H386" stroke="#ffc84d" stroke-opacity="0.75" stroke-width="5" stroke-linecap="round"/></g>
</svg>
